<?xml version="1.0" encoding="UTF-8" standalone="no"?>
<!-- Created with Inkscape (http://www.inkscape.org/) -->

<svg
   version="1.1"
   width="240.62451"
   height="56.567459"
   id="svg3811"
   inkscape:version="1.2.1 (9c6d41e410, 2022-07-14)"
   sodipodi:docname="dtabf.svg"
   inkscape:export-filename="H:\Dita\DTABf\img\text4184.png"
   inkscape:export-xdpi="500"
   inkscape:export-ydpi="500"
   xmlns:inkscape="http://www.inkscape.org/namespaces/inkscape"
   xmlns:sodipodi="http://sodipodi.sourceforge.net/DTD/sodipodi-0.dtd"
   xmlns="http://www.w3.org/2000/svg"
   xmlns:svg="http://www.w3.org/2000/svg"
   xmlns:rdf="http://www.w3.org/1999/02/22-rdf-syntax-ns#"
   xmlns:cc="http://creativecommons.org/ns#"
   xmlns:dc="http://purl.org/dc/elements/1.1/">
  <sodipodi:namedview
     pagecolor="#ffffff"
     bordercolor="#666666"
     borderopacity="1"
     objecttolerance="10"
     gridtolerance="10"
     guidetolerance="10"
     inkscape:pageopacity="0"
     inkscape:pageshadow="2"
     inkscape:window-width="1680"
     inkscape:window-height="997"
     id="namedview2995"
     showgrid="true"
     fit-margin-top="0"
     fit-margin-left="0"
     fit-margin-right="0"
     fit-margin-bottom="0"
     inkscape:zoom="7.9632768"
     inkscape:cx="182.46258"
     inkscape:cy="39.807733"
     inkscape:window-x="-8"
     inkscape:window-y="-8"
     inkscape:window-maximized="1"
     inkscape:current-layer="svg3811"
     inkscape:showpageshadow="2"
     inkscape:pagecheckerboard="0"
     inkscape:deskcolor="#d1d1d1">
    <inkscape:grid
       type="xygrid"
       id="grid4188" />
  </sodipodi:namedview>
  <defs
     id="defs3813" />
  <metadata
     id="metadata3816">
    <rdf:RDF>
      <cc:Work
         rdf:about="">
        <dc:format>image/svg+xml</dc:format>
        <dc:type
           rdf:resource="http://purl.org/dc/dcmitype/StillImage" />
        <dc:title />
      </cc:Work>
    </rdf:RDF>
  </metadata>
  <path
     inkscape:connector-curvature="0"
     style="fill:#d1c5a4;fill-opacity:1"
     id="path3862"
     d="m 1.59702,56.238539 c -0.56901,-0.27875 -1.06305,-0.74029 -1.33919,-1.2511 L 0.0506,54.604109 0.0253,28.417149 0,2.2301993 l 0.23238,-0.4547 c 0.26011,-0.50895 0.67448,-0.93242002 1.2778,-1.30585002 l 0.40539,-0.25092 h 27.12654 27.12654 l 0.38383,0.19581 c 0.53376,0.2723 1.11696,0.82072002 1.36443,1.28306002 l 0.20869,0.38987 v 26.2583197 26.25832 l -0.20869,0.38987 c -0.24747,0.46234 -0.83067,1.01076 -1.36443,1.28306 l -0.38383,0.19582 -27.05276,-0.003 -27.05276,-0.003 -0.46608,-0.22832 z m 31.94731,-3.60104 c 4.36976,-0.30178 8.94552,-1.09356 12.79374,-2.21382 2.56128,-0.74562 6.71758,-2.20984 7.45959,-2.62795 0.57476,-0.32385 1.51679,-1.18631 1.80893,-1.65612 l 0.21898,-0.35216 0.0263,-22.16145 0.0263,-22.1614397 H 29.18625 2.49432 l 0.01,19.8135297 c 0.005,10.89744 0.0378,21.04602 0.0719,22.55239 l 0.0619,2.73887 0.26224,0.34366 c 0.36396,0.47695 1.30802,0.90265 3.90226,1.75961 4.73803,1.56514 9.50309,2.71241 14.23549,3.42746 3.50744,0.52997 9.12112,0.7712 12.50624,0.53742 z" />
  <path
     inkscape:connector-curvature="0"
     style="fill:#6d655a;fill-opacity:1;stroke-width:1.06918"
     id="path3919"
     d="M 16.005022,25.478648 V 10.105029 l 6.295118,8.29e-4 c 7.325546,9.64e-4 8.397633,0.07958 10.526708,0.771454 3.295393,1.070958 5.997203,2.922681 7.953559,5.451063 2.135899,2.760415 3.151718,5.736003 3.140892,9.200507 -0.0098,3.121969 -0.825427,5.737408 -2.585295,8.289696 -2.370447,3.437777 -6.073413,5.834227 -10.313027,6.674316 -1.457779,0.288862 -3.177133,0.356154 -9.140767,0.357769 l -5.877188,0.0021 V 25.479152 Z m 12.955942,8.345676 c 2.444291,-0.585115 4.454309,-2.075221 5.521174,-4.093078 0.377438,-0.713892 0.737475,-2.09594 0.833669,-3.200188 0.418235,-4.801256 -1.849074,-8.239578 -6.198118,-9.399312 -0.691923,-0.184505 -1.191242,-0.230859 -2.89942,-0.269171 l -2.063539,-0.04624 v 8.665028 8.665038 l 1.959059,-0.05473 c 1.497289,-0.04183 2.1684,-0.104849 2.847175,-0.267325 z" />
  <path
     inkscape:connector-curvature="0"
     style="fill:#d1c5a4;fill-opacity:1"
     id="path3872"
     d="m 124.03209,56.40133 c -0.74918,-0.12315 -1.36745,-0.65463 -1.83508,-1.57746 l -0.24719,-0.4878 0.0448,-26.11623 c 0.0416,-24.25241 0.0564,-26.13837 0.20637,-26.4264 0.24193,-0.46457 0.72882,-0.98413 1.20691,-1.28789 l 0.42605,-0.27069 h 27.2527 27.2527 l 0.41814,0.24504 c 0.50346,0.29505 1.0353,0.86513 1.26693,1.35803 0.16133,0.3433 0.16989,1.6794 0.16989,26.52399 v 26.16249 l -0.21105,0.39449 c -0.32236,0.60257 -0.67746,0.97858 -1.21575,1.28732 l -0.48987,0.28097 -26.92915,-0.0111 c -14.81103,-0.006 -27.10343,-0.0397 -27.31645,-0.0748 z m 31.43728,-3.74586 c 6.14185,-0.436 10.56842,-1.36327 17.01041,-3.56331 3.30181,-1.12762 4.30423,-1.68308 5.08479,-2.81759 l 0.28187,-0.40969 V 23.67278 1.48069 h -26.70516 -26.70516 l 0.0697,22.20936 c 0.0383,12.21515 0.10479,22.39558 0.14767,22.62318 0.17944,0.95239 1.07047,1.40533 5.46798,2.77954 6.00904,1.87782 12.0718,3.09911 17.20207,3.46523 0.79063,0.0564 1.61,0.11579 1.82084,0.13193 0.96543,0.0739 5.11729,0.0513 6.32499,-0.0345 z" />
  <text
     xml:space="preserve"
     style="font-style:normal;font-variant:normal;font-weight:bold;font-stretch:normal;font-size:11.724px;line-height:0%;font-family:Aharoni;-inkscape-font-specification:'Aharoni, Bold';text-align:start;letter-spacing:0px;word-spacing:0px;writing-mode:lr-tb;text-anchor:start;fill:#6d655a;fill-opacity:1;stroke:none;stroke-width:0.97701px;stroke-linecap:butt;stroke-linejoin:miter;stroke-opacity:1"
     x="74.113052"
     y="41.420471"
     id="text4184"
     transform="scale(1.0132578,0.98691571)"
     inkscape:export-xdpi="500"
     inkscape:export-ydpi="500"><tspan
       sodipodi:role="line"
       id="tspan4186"
       x="74.113052"
       y="41.420471"
       style="font-size:42.9845px;line-height:1.25;stroke-width:0.97701px">T</tspan></text>
  <path
     inkscape:connector-curvature="0"
     style="fill:#d1c5a4;fill-opacity:1"
     id="path3862-8"
     d="m 62.420398,56.238539 c -0.56901,-0.27875 -1.06305,-0.74029 -1.33919,-1.2511 l -0.20723,-0.38333 -0.0253,-26.18696 -0.0253,-26.1869497 0.23238,-0.4547 c 0.26011,-0.50895 0.67448,-0.93242002 1.2778,-1.30585002 l 0.40539,-0.25092 h 27.12654 27.126532 l 0.38383,0.19581 c 0.53376,0.2723 1.11696,0.82072002 1.36443,1.28306002 l 0.20869,0.38987 v 26.2583197 26.25832 l -0.20869,0.38987 c -0.24747,0.46234 -0.83067,1.01076 -1.36443,1.28306 l -0.38383,0.19582 -27.052752,-0.003 -27.05276,-0.003 -0.46608,-0.22832 z m 31.94731,-3.60104 c 4.36976,-0.30178 8.945512,-1.09356 12.793732,-2.21382 2.56128,-0.74562 6.71758,-2.20984 7.45959,-2.62795 0.57476,-0.32385 1.51679,-1.18631 1.80893,-1.65612 l 0.21898,-0.35216 0.0263,-22.16145 0.0263,-22.1614397 H 90.009628 63.317698 l 0.01,19.8135297 c 0.005,10.89744 0.0378,21.04602 0.0719,22.55239 l 0.0619,2.73887 0.26224,0.34366 c 0.36396,0.47695 1.30802,0.90265 3.90226,1.75961 4.73803,1.56514 9.50309,2.71241 14.23549,3.42746 3.50744,0.52997 9.12112,0.7712 12.50624,0.53742 z" />
  <text
     xml:space="preserve"
     style="font-style:normal;font-weight:normal;font-size:11.7925px;line-height:0%;font-family:sans-serif;letter-spacing:0px;word-spacing:0px;fill:#6d655a;fill-opacity:1;stroke:none;stroke-width:0.982705px;stroke-linecap:butt;stroke-linejoin:miter;stroke-opacity:1"
     x="138.19247"
     y="40.393555"
     id="text4213"
     transform="scale(0.98934818,1.0107665)"
     inkscape:transform-center-x="-0.21874082"
     inkscape:transform-center-y="-0.32927362"><tspan
       sodipodi:role="line"
       id="tspan4215"
       x="138.19247"
       y="40.393555"
       style="font-style:normal;font-variant:normal;font-weight:bold;font-stretch:normal;font-size:41.9123px;line-height:125%;font-family:Aharoni;-inkscape-font-specification:'Aharoni, Bold';text-align:start;writing-mode:lr-tb;text-anchor:start;fill:#6d655a;fill-opacity:1;stroke-width:0.982705px">A</tspan></text>
  <path
     inkscape:connector-curvature="0"
     style="fill:#d1c5a4;fill-opacity:1;stroke-width:0.999998"
     id="path3862-8-1"
     d="m 184.15726,56.238539 c -0.56901,-0.278749 -1.06305,-0.74029 -1.33919,-1.2511 l -0.20723,-0.38333 -0.0253,-26.18696 -0.0253,-26.1869493 0.23238,-0.4547 c 0.26011,-0.5089501 0.67448,-0.93242006 1.2778,-1.30585006 l 0.40539,-0.25092 h 27.12654 27.12654 l 0.38383,0.19581 c 0.53376,0.2723 1.11696,0.82071996 1.36443,1.28306006 l 0.20869,0.3898699 V 28.34579 54.604109 l -0.20869,0.38987 c -0.24747,0.462341 -0.83067,1.01076 -1.36443,1.28306 l -0.38383,0.19582 -27.05276,-0.003 -27.05276,-0.003 -0.46608,-0.22832 z M 216.10457,52.6375 c 4.36976,-0.301781 8.94552,-1.09356 12.79374,-2.21382 2.56128,-0.745621 6.71758,-2.209841 7.45959,-2.62795 0.57476,-0.323851 1.51679,-1.186311 1.80893,-1.656121 l 0.21898,-0.35216 0.0263,-22.161449 0.0263,-22.1614403 h -26.69192 -26.69193 l 0.01,19.8135293 c 0.005,10.89744 0.0378,21.04602 0.0719,22.552391 l 0.0619,2.738869 0.26224,0.343661 c 0.36396,0.47695 1.30802,0.902649 3.90226,1.759609 4.73803,1.56514 9.50309,2.712411 14.23549,3.427461 3.50744,0.529969 9.12112,0.771199 12.50624,0.53742 z" />
  <text
     xml:space="preserve"
     style="font-style:normal;font-weight:normal;font-size:11.2158px;line-height:0%;font-family:sans-serif;letter-spacing:0px;word-spacing:0px;fill:#976711;fill-opacity:0.941176;stroke:none;stroke-width:0.934647px;stroke-linecap:butt;stroke-linejoin:miter;stroke-opacity:1"
     x="197.62784"
     y="39.220837"
     id="text4246"
     transform="scale(0.95880486,1.0429651)"><tspan
       sodipodi:role="line"
       id="tspan4248"
       x="197.62784"
       y="39.220837"
       style="font-style:normal;font-variant:normal;font-weight:bold;font-stretch:normal;font-size:40.8415px;line-height:125%;font-family:Aharoni;-inkscape-font-specification:'Aharoni, Bold';text-align:start;writing-mode:lr-tb;text-anchor:start;fill:#976711;fill-opacity:0.941176;stroke-width:0.934647px">B</tspan></text>
  <text
     xml:space="preserve"
     style="font-style:normal;font-weight:normal;font-size:12.0642px;line-height:0%;font-family:sans-serif;letter-spacing:0px;word-spacing:0px;fill:#986911;fill-opacity:0.94;stroke:none;stroke-width:1.00535px;stroke-linecap:butt;stroke-linejoin:miter;stroke-opacity:1"
     x="226.4781"
     y="39.149239"
     id="text4250"
     transform="scale(0.95670225,1.0452573)"><tspan
       sodipodi:role="line"
       id="tspan4252"
       x="226.4781"
       y="39.149239"
       style="font-style:normal;font-variant:normal;font-weight:bold;font-stretch:normal;font-size:38.6683px;line-height:125%;font-family:Aharoni;-inkscape-font-specification:'Aharoni, Bold';text-align:start;writing-mode:lr-tb;text-anchor:start;fill:#986911;fill-opacity:0.94;stroke-width:1.00535px">f</tspan></text>
</svg>
