<?xml version="1.0" encoding="UTF-8" standalone="no"?>
<!-- Created with Inkscape (http://www.inkscape.org/) -->

<svg
   xmlns:dc="http://purl.org/dc/elements/1.1/"
   xmlns:cc="http://creativecommons.org/ns#"
   xmlns:rdf="http://www.w3.org/1999/02/22-rdf-syntax-ns#"
   xmlns:svg="http://www.w3.org/2000/svg"
   xmlns="http://www.w3.org/2000/svg"
   xmlns:sodipodi="http://sodipodi.sourceforge.net/DTD/sodipodi-0.dtd"
   xmlns:inkscape="http://www.inkscape.org/namespaces/inkscape"
   version="1.1"
   width="240.62451"
   height="56.567459"
   id="svg3811"
   inkscape:version="0.91 r13725"
   sodipodi:docname="dtabf - Copy.svg"
   inkscape:export-filename="H:\Dita\DTABf\img\text4184.png"
   inkscape:export-xdpi="500"
   inkscape:export-ydpi="500">
  <sodipodi:namedview
     pagecolor="#ffffff"
     bordercolor="#666666"
     borderopacity="1"
     objecttolerance="10"
     gridtolerance="10"
     guidetolerance="10"
     inkscape:pageopacity="0"
     inkscape:pageshadow="2"
     inkscape:window-width="1680"
     inkscape:window-height="998"
     id="namedview2995"
     showgrid="true"
     fit-margin-top="0"
     fit-margin-left="0"
     fit-margin-right="0"
     fit-margin-bottom="0"
     inkscape:zoom="2.05"
     inkscape:cx="204.1172"
     inkscape:cy="38.216803"
     inkscape:window-x="-8"
     inkscape:window-y="-8"
     inkscape:window-maximized="1"
     inkscape:current-layer="svg3811">
    <inkscape:grid
       type="xygrid"
       id="grid4188" />
  </sodipodi:namedview>
  <defs
     id="defs3813" />
  <metadata
     id="metadata3816">
    <rdf:RDF>
      <cc:Work
         rdf:about="">
        <dc:format>image/svg+xml</dc:format>
        <dc:type
           rdf:resource="http://purl.org/dc/dcmitype/StillImage" />
        <dc:title />
      </cc:Work>
    </rdf:RDF>
  </metadata>
  <path
     inkscape:connector-curvature="0"
     style="fill:#d1c5a4;fill-opacity:1"
     id="path3862"
     d="M 1.1512873,40.384526 C 0.74108955,40.183575 0.38493749,39.850853 0.18586893,39.482611 L 0.03647739,39.206269 0.0182387,20.328163 0,1.4500632 0.1675221,1.1222712 C 0.35503467,0.75537052 0.65375286,0.45009218 1.0886846,0.18088753 L 1.3809291,0 20.936376,0 40.491824,0 40.768525,0.14115889 c 0.384787,0.19630031 0.805214,0.59165476 0.983614,0.92495441 l 0.150445,0.2810561 0,18.9295506 0,18.929549 -0.150445,0.281056 c -0.1784,0.333301 -0.598827,0.728654 -0.983614,0.924955 l -0.276701,0.141166 -19.502259,-0.0021 -19.5022604,-0.0021 -0.3359957,-0.164595 z m 23.0307277,-2.59598 c 3.150147,-0.217553 6.4488,-0.788345 9.222971,-1.595937 1.84642,-0.537516 4.842685,-1.593067 5.377598,-1.894481 0.414343,-0.233463 1.093449,-0.855209 1.304053,-1.193893 l 0.157861,-0.253871 0.01897,-15.976128 0.01895,-15.97612061 -19.242131,0 -19.2421377,0 0.00721,14.28351861 c 0.00361,7.855934 0.02725,15.172018 0.051832,16.257955 l 0.044624,1.974444 0.1890481,0.247744 c 0.2623778,0.343832 0.942948,0.650718 2.8131285,1.268497 3.4156327,1.128306 6.8507511,1.95537 10.2623251,2.470847 2.528504,0.382054 6.57539,0.555956 9.015714,0.387425 z" />
  <path
     inkscape:connector-curvature="0"
     style="fill:#6d655a;fill-opacity:1"
     id="path3919"
     d="m 12.270204,18.880147 0,-10.5701557 4.162424,5.695e-4 c 4.84376,6.633e-4 5.55264,0.054716 6.960414,0.5304147 2.178963,0.7363388 3.965441,2.0094935 5.25901,3.7478875 1.41229,1.897927 2.083964,3.943798 2.076805,6.325822 -0.0065,2.146515 -0.545784,3.944764 -1.709435,5.699594 -1.567375,2.363648 -4.01583,4.011332 -6.819125,4.588936 -0.963904,0.198607 -2.100767,0.244874 -6.044009,0.245984 l -3.886084,0.0015 0,-10.570148 z m 8.56666,5.738083 c 1.616201,-0.402298 2.945254,-1.426822 3.650681,-2.814203 0.249568,-0.490838 0.48763,-1.441066 0.551234,-2.200294 0.276543,-3.301111 -1.222634,-5.665135 -4.098286,-6.462511 -0.457511,-0.126857 -0.787667,-0.158728 -1.91714,-0.18507 l -1.364442,-0.03179 0,5.957654 0,5.957659 1.295358,-0.03763 c 0.99003,-0.02876 1.433778,-0.07209 1.882595,-0.183801 z" />
  <path
     inkscape:connector-curvature="0"
     style="fill:#d1c5a4;fill-opacity:1"
     id="path3872"
     d="M 89.335552,40.659562 C 88.79547,40.57078 88.349761,40.187641 88.012648,39.522376 l -0.178199,-0.351654 0.0323,-18.827117 C 87.896735,2.8601092 87.907404,1.5005259 88.015517,1.292886 88.189923,0.9579787 88.540921,0.58342934 88.885576,0.36444959 l 0.307138,-0.19513966 19.646396,0 19.64639,0 0.30144,0.17664864 c 0.36294,0.21270073 0.74635,0.62366982 0.91333,0.97900013 0.1163,0.247484 0.12247,1.2106747 0.12247,19.1210703 l 0,18.860467 -0.15214,0.284387 c -0.2324,0.43439 -0.48838,0.705455 -0.87644,0.928025 l -0.35314,0.20255 -19.41315,-0.008 c -10.677231,-0.0044 -19.538789,-0.02862 -19.692354,-0.05392 z m 22.663048,-2.70038 c 4.42765,-0.314311 7.61874,-0.982777 12.26276,-2.568781 2.38026,-0.812897 3.1029,-1.213327 3.66561,-2.031192 l 0.20319,-0.295344 0,-15.998224 0,-15.9982157 -19.25167,0 -19.251674,0 0.05025,16.0106667 c 0.02761,8.805867 0.07554,16.144911 0.106457,16.308987 0.129359,0.686575 0.771699,1.013099 3.941853,2.003763 4.3319,1.353715 8.702527,2.234139 12.400927,2.498074 0.56996,0.04065 1.16064,0.08347 1.31264,0.0951 0.69597,0.05327 3.68904,0.03698 4.55966,-0.02487 z" />
  <text
     xml:space="preserve"
     style="font-style:normal;font-variant:normal;font-weight:bold;font-stretch:normal;font-size:31.71657181px;line-height:125%;font-family:Aharoni;-inkscape-font-specification:'Aharoni, Bold';text-align:start;letter-spacing:0px;word-spacing:0px;writing-mode:lr-tb;text-anchor:start;fill:#6d655a;fill-opacity:1;stroke:none;stroke-width:1px;stroke-linecap:butt;stroke-linejoin:miter;stroke-opacity:1"
     x="56.686012"
     y="29.515945"
     id="text4184"
     sodipodi:linespacing="125%"
     transform="scale(1.001586,0.99841651)"
     inkscape:export-xdpi="500"
     inkscape:export-ydpi="500"><tspan
       sodipodi:role="line"
       id="tspan4186"
       x="56.686012"
       y="29.515945">T</tspan></text>
  <path
     style="fill:#ffffff;fill-opacity:1;stroke:#ffffff;stroke-width:0.13532491;stroke-opacity:1"
     d="m 62.679103,37.774097 c -2.88886,-0.238425 -4.645998,-0.482747 -7.02302,-0.97652 -2.969041,-0.616752 -7.754404,-2.019329 -9.024836,-2.645157 -1.010258,-0.497661 -0.933867,0.05204 -1.008142,-7.25443 -0.03564,-3.506231 -0.06484,-10.775931 -0.06489,-16.15489 l -8.1e-5,-9.77992563 19.225094,0 19.225095,0 -0.03107,16.04416163 -0.03107,16.04416 -0.481667,0.488995 c -0.664985,0.6751 -1.483117,1.075757 -3.680267,1.80231 -4.512918,1.492334 -7.825595,2.176371 -11.597855,2.394855 -1.57807,0.09141 -4.599168,0.111389 -5.507279,0.03644 z m 4.341214,-16.519408 0,-8.292205 2.294317,0 2.294317,0 -0.02615,-2.31694 -0.02615,-2.3169395 -7.292265,-0.025008 -7.292263,-0.025008 0,2.3419495 0,2.341949 2.243774,0 2.243774,0 0,8.292206 0,8.292206 2.780327,0 2.780329,0 0,-8.292206 z"
     id="path4192"
     inkscape:connector-curvature="0"
     inkscape:export-xdpi="500"
     inkscape:export-ydpi="500" />
  <path
     inkscape:connector-curvature="0"
     style="fill:#d1c5a4;fill-opacity:1"
     id="path3862-8"
     d="m 44.91985,40.384526 c -0.410197,-0.200951 -0.766349,-0.533673 -0.965418,-0.901915 l -0.149391,-0.276342 -0.01824,-18.878106 -0.01824,-18.8780998 0.167523,-0.327792 c 0.187512,-0.36690068 0.48623,-0.67217902 0.921162,-0.94138367 L 45.149492,0 64.704939,0 84.260385,0 84.537087,0.14115889 c 0.384786,0.19630031 0.805214,0.59165476 0.983614,0.92495441 l 0.150444,0.2810561 0,18.9295506 0,18.929549 -0.150444,0.281056 c -0.1784,0.333301 -0.598828,0.728654 -0.983614,0.924955 l -0.276702,0.141166 -19.502257,-0.0021 -19.50226,-0.0021 -0.335995,-0.164595 z m 23.030728,-2.59598 c 3.150147,-0.217553 6.448798,-0.788345 9.22297,-1.595937 1.846419,-0.537516 4.842684,-1.593067 5.377597,-1.894481 0.414343,-0.233463 1.093449,-0.855209 1.304053,-1.193893 l 0.157862,-0.253871 0.01895,-15.976128 0.01896,-15.97612061 -19.242129,0 -19.242139,0 0.0072,14.28351861 c 0.0036,7.855934 0.02725,15.172018 0.05183,16.257955 l 0.04462,1.974444 0.189048,0.247744 c 0.262378,0.343832 0.942948,0.650718 2.813128,1.268497 3.415633,1.128306 6.850751,1.95537 10.262325,2.470847 2.528504,0.382054 6.57539,0.555956 9.015715,0.387425 z" />
  <path
     style="fill:#ffffff;fill-opacity:1;stroke:#ffffff;stroke-width:0.09532888;stroke-opacity:1"
     d="m 63.810742,37.795563 c -3.200068,-0.162785 -4.830173,-0.358917 -7.686462,-0.924822 -2.570531,-0.509292 -4.973311,-1.150385 -7.583898,-2.023485 -1.673758,-0.559782 -2.384481,-0.880249 -2.648772,-1.19434 -0.165501,-0.196688 -0.174916,-0.256358 -0.214751,-1.361106 -0.02291,-0.63547 -0.06129,-7.951179 -0.08527,-16.257131 l -0.04361,-15.10173062 19.248606,0 19.248607,0 -0.04174,15.96075962 c -0.03352,12.828434 -0.05911,15.995298 -0.130346,16.136744 -0.14717,0.292211 -1.03554,1.080747 -1.456334,1.292673 -0.485388,0.244457 -2.258016,0.893729 -3.865113,1.4157 -2.901704,0.942446 -6.093059,1.595647 -9.414959,1.927036 -1.016136,0.101368 -4.307344,0.18152 -5.32598,0.129702 z m 3.178684,-16.572348 0.01746,-8.263859 2.26756,0 2.26756,0 0,-2.302199 0,-2.3021972 -7.284568,0 -7.284566,0 0,2.3021972 0,2.302199 2.267836,0 2.267837,0 0,8.281828 0,8.281829 2.731713,-0.01797 2.731712,-0.01798 0.01746,-8.26386 z"
     id="path4211"
     inkscape:connector-curvature="0" />
  <text
     xml:space="preserve"
     style="font-style:normal;font-weight:normal;font-size:30.74621582px;line-height:125%;font-family:sans-serif;letter-spacing:0px;word-spacing:0px;fill:#6d655a;fill-opacity:1;stroke:none;stroke-width:1px;stroke-linecap:butt;stroke-linejoin:miter;stroke-opacity:1"
     x="101.37582"
     y="28.615993"
     id="text4213"
     sodipodi:linespacing="125%"
     transform="scale(0.97223785,1.0285549)"><tspan
       sodipodi:role="line"
       id="tspan4215"
       x="101.37582"
       y="28.615993"
       style="font-style:normal;font-variant:normal;font-weight:bold;font-stretch:normal;font-size:30.74621582px;line-height:125%;font-family:Aharoni;-inkscape-font-specification:'Aharoni, Bold';text-align:start;writing-mode:lr-tb;text-anchor:start;fill:#6d655a;fill-opacity:1">A</tspan></text>
  <path
     style="fill:#ffffff;fill-opacity:1;stroke:#ffffff;stroke-width:0.10936464;stroke-opacity:1"
     d="m 105.65577,37.824038 c -3.54122,-0.319492 -7.446972,-1.114809 -11.511283,-2.344007 -2.734283,-0.826947 -3.694518,-1.21759 -4.084365,-1.661601 l -0.232453,-0.264751 -0.04779,-3.496707 c -0.02631,-1.923188 -0.06942,-9.235321 -0.09588,-16.249182 l -0.04808,-12.7524777 19.244721,0 19.24473,0 0,15.9975747 0,15.997575 -0.31198,0.3947 c -0.17161,0.217084 -0.43091,0.485395 -0.57625,0.596245 -0.71977,0.549003 -2.98429,1.40075 -6.1153,2.300129 -2.69875,0.775217 -5.13305,1.230323 -7.97621,1.491203 -1.64556,0.150991 -5.77298,0.146197 -7.48985,-0.0087 z m -0.70648,-10.198828 0.66705,-1.812738 3.56102,-6.31e-4 3.56102,-6.31e-4 0.12462,0.335072 c 0.0686,0.18429 0.3511,0.991422 0.62792,1.793626 l 0.5033,1.458552 2.81699,0.02071 c 2.66316,0.01959 2.81405,0.01312 2.76308,-0.118261 -0.0852,-0.219545 -7.14015,-20.0338894 -7.31295,-20.538927 l -0.15512,-0.453334 -2.85073,4.686e-4 -2.85074,4.685e-4 -3.70225,10.1896869 c -2.03624,5.604328 -3.765654,10.358209 -3.843157,10.56418 l -0.140914,0.374493 2.781901,0 2.7819,0 0.66706,-1.81274 z"
     id="path4217"
     inkscape:connector-curvature="0"
     inkscape:export-xdpi="500"
     inkscape:export-ydpi="500" />
  <path
     style="fill:#ffffff;fill-opacity:1;stroke:#ffffff;stroke-width:0.10936464;stroke-opacity:1"
     d="m 107.10006,21.494754 c 0.019,-0.03252 0.48558,-1.460523 1.03695,-3.173337 0.55137,-1.712813 1.02825,-3.141512 1.05974,-3.174887 0.0315,-0.03338 0.348,0.853584 0.70335,1.971017 0.35535,1.117434 0.81908,2.572741 1.03049,3.234017 l 0.3844,1.20232 -2.1247,0 c -1.16858,0 -2.10919,-0.02661 -2.09023,-0.05912 z"
     id="path4219"
     inkscape:connector-curvature="0" />
  <path
     inkscape:connector-curvature="0"
     style="fill:#d1c5a4;fill-opacity:1"
     id="path3862-8-1"
     d="m 132.70031,40.463367 c -0.41021,-0.200951 -0.76635,-0.533673 -0.96543,-0.901915 l -0.14938,-0.276342 -0.0183,-18.878106 -0.0183,-18.8781 0.16752,-0.3277919 c 0.18752,-0.36690064 0.48623,-0.672179 0.92116,-0.94138364 l 0.29225,-0.18088754 19.55544,0 19.55546,0 0.2767,0.14115889 c 0.38478,0.19630032 0.80521,0.59165477 0.98361,0.92495439 l 0.15044,0.2810562 0,18.9295506 0,18.929549 -0.15044,0.281056 c -0.1784,0.3333 -0.59883,0.728654 -0.98361,0.924955 l -0.2767,0.141166 -19.50226,-0.0021 -19.50226,-0.0021 -0.336,-0.164595 z m 23.03071,-2.59598 c 3.15016,-0.217553 6.44881,-0.788345 9.22298,-1.595937 1.84642,-0.537516 4.84269,-1.593067 5.37759,-1.894481 0.41436,-0.233463 1.09346,-0.855209 1.30406,-1.193893 l 0.15787,-0.253871 0.0189,-15.976128 0.0189,-15.97612069 -19.24213,0 -19.24214,0 0.007,14.28351869 c 0.003,7.855934 0.0272,15.172017 0.0518,16.257955 l 0.0446,1.974444 0.18904,0.247744 c 0.26238,0.343832 0.94295,0.650718 2.81313,1.268497 3.41563,1.128306 6.85075,1.95537 10.26233,2.470847 2.5285,0.382054 6.57539,0.555956 9.01571,0.387425 z" />
  <text
     xml:space="preserve"
     style="font-style:normal;font-weight:normal;font-size:31.50117111px;line-height:125%;font-family:sans-serif;letter-spacing:0px;word-spacing:0px;fill:#976711;fill-opacity:0.94117647;stroke:none;stroke-width:1px;stroke-linecap:butt;stroke-linejoin:miter;stroke-opacity:1"
     x="139.18674"
     y="29.319374"
     id="text4246"
     sodipodi:linespacing="125%"
     transform="scale(0.99424797,1.0057853)"><tspan
       sodipodi:role="line"
       id="tspan4248"
       x="139.18674"
       y="29.319374"
       style="font-style:normal;font-variant:normal;font-weight:bold;font-stretch:normal;font-size:31.50117111px;line-height:125%;font-family:Aharoni;-inkscape-font-specification:'Aharoni, Bold';text-align:start;writing-mode:lr-tb;text-anchor:start;fill:#976711;fill-opacity:0.94117647">B</tspan></text>
  <text
     xml:space="preserve"
     style="font-style:normal;font-weight:normal;font-size:27.72749138px;line-height:125%;font-family:sans-serif;letter-spacing:0px;word-spacing:0px;fill:#976711;fill-opacity:0.94117647;stroke:none;stroke-width:1px;stroke-linecap:butt;stroke-linejoin:miter;stroke-opacity:1"
     x="162.97229"
     y="28.373585"
     id="text4250"
     sodipodi:linespacing="125%"
     transform="scale(0.96182119,1.0396943)"><tspan
       sodipodi:role="line"
       id="tspan4252"
       x="162.97229"
       y="28.373585"
       style="font-style:normal;font-variant:normal;font-weight:bold;font-stretch:normal;font-size:27.72749138px;line-height:125%;font-family:Aharoni;-inkscape-font-specification:'Aharoni, Bold';text-align:start;writing-mode:lr-tb;text-anchor:start;fill:#976711;fill-opacity:0.94117647">f</tspan></text>
  <path
     style="fill:#ffffff;fill-opacity:0.94117647;stroke:#ffffff;stroke-width:0.05864443;stroke-opacity:1"
     d="m 151.61881,37.879842 c -3.00102,-0.112607 -5.41571,-0.415977 -8.40909,-1.056479 -3.4434,-0.736794 -7.96508,-2.094998 -9.07229,-2.725096 -0.30281,-0.172329 -0.38518,-0.240936 -0.54973,-0.457899 l -0.12484,-0.164594 -0.0294,-1.272811 c -0.0163,-0.700046 -0.0436,-8.01223 -0.0608,-16.249299 l -0.0314,-14.97648937 19.2404,0 19.24039,0 -0.0235,15.96999037 -0.0235,15.969988 -0.10805,0.190245 c -0.1459,0.256985 -0.81167,0.90947 -1.15439,1.131343 -0.33422,0.21637 -0.94362,0.468317 -2.30025,0.950992 -3.07073,1.092543 -5.23793,1.66674 -8.07483,2.139412 -3.03022,0.504885 -5.49436,0.66418 -8.51873,0.550697 z m -0.76415,-8.46561 c 1.36928,-0.205668 2.38352,-0.567187 3.28657,-1.17148 0.43851,-0.293426 1.17405,-1.031735 1.44876,-1.454198 0.59857,-0.920483 0.83987,-1.763331 0.87795,-3.066563 0.0341,-1.165066 -0.10346,-1.954166 -0.49757,-2.854594 -0.5728,-1.308858 -1.55673,-2.056624 -3.32983,-2.530608 l -0.35226,-0.09416 0.23345,-0.154999 c 1.42398,-0.945472 2.07015,-2.402829 2.00055,-4.512019 -0.0244,-0.739847 -0.10368,-1.292142 -0.26055,-1.815118 -0.58162,-1.9392211 -1.95074,-2.9975104 -4.30985,-3.3313903 -0.45465,-0.064347 -0.9945,-0.072357 -4.94936,-0.073439 l -4.43904,-0.00122 -0.0112,10.5818303 -0.0112,10.581832 4.91474,-0.01567 c 4.37557,-0.01394 4.96773,-0.02363 5.39775,-0.08821 l 0,-1e-6 z m 12.00974,-4.529635 0,-4.629288 1.50081,0 1.50082,0 0,-1.923586 0,-1.923586 -1.50082,0 -1.50081,0 0.001,-1.173176 c 0.002,-1.656168 0.0682,-2.078045 0.38254,-2.435258 0.23318,-0.264904 0.46771,-0.394712 0.82224,-0.455111 0.39821,-0.06783 0.82297,0.01936 1.3549,0.278122 0.21699,0.105549 0.40489,0.191911 0.41758,0.191911 0.0127,0 0.0231,-0.910486 0.0231,-2.023303 l 0,-2.0233025 -0.34456,-0.1361559 C 164.86449,8.3723111 164.59707,8.3208881 163.9,8.3200994 c -1.15596,-0.0013 -2.072,0.3032807 -3.00437,0.998974 -1.17663,0.8779536 -1.87292,1.9930236 -2.16953,3.4744136 -0.13914,0.694915 -0.17409,1.182578 -0.17409,2.429239 l 0,1.185411 -0.76098,0 -0.76097,0 0,1.923586 0,1.923586 0.76097,0 0.76098,0 0,4.629288 0,4.629289 2.15612,0 2.1561,0 0,-4.629289 z"
     id="path4254"
     inkscape:connector-curvature="0" />
  <path
     style="fill:#ffffff;fill-opacity:0.94117647;stroke:#ffffff;stroke-width:0.05864443;stroke-opacity:1"
     d="m 146.0383,14.611381 0,-2.061208 0.83497,0.02145 c 0.9157,0.02353 1.1702,0.06389 1.5596,0.247397 0.58769,0.276953 0.95249,0.795246 1.02351,1.454148 0.12674,1.176173 -0.40182,1.984474 -1.49449,2.285396 -0.17815,0.04906 -0.50225,0.07643 -1.08862,0.09194 l -0.83497,0.02208 0,-2.061208 z"
     id="path4256"
     inkscape:connector-curvature="0" />
  <path
     style="fill:#ffffff;fill-opacity:0.94117647;stroke:#ffffff;stroke-width:0.05864443;stroke-opacity:1"
     d="m 146.0383,23.083062 0,-2.203163 1.46911,0.02156 c 1.63717,0.02404 1.87334,0.05393 2.40892,0.304853 0.72069,0.337646 1.10824,0.995181 1.10999,1.883203 0.002,1.063341 -0.62457,1.769719 -1.79682,2.025415 -0.56377,0.122972 -1.19768,0.171207 -2.25055,0.171247 l -0.94065,3.6e-5 0,-2.203164 z"
     id="path4258"
     inkscape:connector-curvature="0" />
  <path
     style="fill:#ffffff;fill-opacity:0.94117647;stroke:#ffffff;stroke-width:0.05864443;stroke-opacity:1"
     d="M 19.968695,37.796909 C 17.087979,37.680956 15.04188,37.432672 12.1898,36.852979 9.4823976,36.30269 6.5764235,35.507643 4.1149673,34.64378 2.8021178,34.183027 2.3226414,33.936346 2.0545792,33.583748 L 1.8864011,33.362533 1.8506568,27.369087 C 1.8309973,24.07269 1.8140078,16.766961 1.812902,11.13413 l -0.00201,-10.24150853 19.226494,0 19.226496,0 -0.01658,15.96998953 -0.01658,15.96999 -0.100304,0.171828 c -0.269777,0.462151 -1.01757,1.121069 -1.560009,1.374599 -0.705411,0.329705 -3.08384,1.165872 -4.73498,1.664644 -2.688451,0.812121 -5.563505,1.359096 -8.666706,1.648832 -1.564643,0.146086 -3.299294,0.180914 -5.200022,0.104406 z m -0.190244,-8.366915 c 1.688236,-0.0581 2.31096,-0.140873 3.339852,-0.443915 2.40117,-0.707218 4.51485,-2.26554 5.907234,-4.355141 0.947809,-1.422409 1.496698,-2.941449 1.662959,-4.602213 0.06591,-0.658288 0.02911,-2.264114 -0.06552,-2.859608 C 30.159083,14.249908 28.38842,11.582215 25.855569,9.9865059 24.762141,9.2976425 23.268067,8.6950864 22.18408,8.5058061 21.239455,8.3408606 20.759691,8.3238698 16.449168,8.3027012 l -4.195953,-0.020603 0,10.5947568 0,10.594756 3.181314,-7.92e-4 c 1.749723,-4.4e-4 3.704489,-0.01881 4.343922,-0.04082 l 0,-10e-7 z"
     id="path4260"
     inkscape:connector-curvature="0" />
  <path
     style="fill:#ffffff;fill-opacity:0.94117647;stroke:#ffffff;stroke-width:0.05864443;stroke-opacity:1"
     d="m 17.664621,18.881676 0,-5.946131 0.961792,0.02607 c 1.332012,0.03611 1.934672,0.09118 2.366185,0.216229 1.579311,0.457667 2.737205,1.381194 3.413987,2.722971 0.711749,1.411102 0.842214,3.376938 0.340901,5.136609 -0.489015,1.716499 -2.049503,3.119319 -3.975534,3.573858 -0.395239,0.09328 -1.107242,0.15278 -2.272369,0.189912 l -0.834962,0.02661 0,-5.946131 z"
     id="path4262"
     inkscape:connector-curvature="0" />
  <path
     style="fill:#ffffff;fill-opacity:0.94117647;stroke:#ffffff;stroke-width:0.05864443;stroke-opacity:1"
     d="M 20.032111,37.81456 C 18.404075,37.7293 17.938642,37.698978 17.17844,37.628652 13.52047,37.290254 8.8850125,36.261227 4.7491165,34.869459 2.9022342,34.247967 2.3912742,34.007871 2.0472421,33.599873 L 1.874307,33.394784 1.8513814,30.154329 C 1.8387723,28.37208 1.8244439,21.059093 1.8195403,13.903248 l -0.00891,-13.01062653 19.2416947,0 19.241694,0 -0.03161,15.99112753 -0.03161,15.991129 -0.143874,0.216769 c -0.181887,0.274041 -0.76187,0.832931 -1.108982,1.068651 -0.298175,0.202488 -0.555158,0.315754 -1.591285,0.701367 -4.673795,1.739433 -8.933126,2.667099 -13.486239,2.937252 -0.635299,0.03769 -3.245674,0.04825 -3.868309,0.01565 z m 0.528457,-8.426951 c 0.917381,-0.05457 1.506404,-0.139474 2.196877,-0.316649 3.709211,-0.951783 6.740865,-3.949171 7.655015,-7.568491 0.240375,-0.951698 0.28998,-1.395538 0.288221,-2.578873 -0.0022,-1.488741 -0.101257,-2.170116 -0.486217,-3.344855 -0.706754,-2.156733 -2.225735,-4.15593 -4.115659,-5.4168 -1.2091,-0.8066556 -2.746078,-1.4408757 -4.023899,-1.6604271 -0.769923,-0.1322853 -1.68544,-0.1625674 -5.85826,-0.1937671 l -3.963431,-0.029636 0,10.6036302 0,10.603631 3.794326,-0.02751 c 2.086878,-0.01512 4.117742,-0.04674 4.513027,-0.07025 z"
     id="path4264"
     inkscape:connector-curvature="0" />
  <path
     style="fill:#ffffff;fill-opacity:0.94117647;stroke:#ffffff;stroke-width:0.05864443;stroke-opacity:1"
     d="m 17.664621,18.881319 0,-5.939863 0.475611,9.37e-4 c 0.818939,0.0016 2.152833,0.07782 2.487454,0.142114 1.30522,0.250771 2.6115,1.065013 3.346288,2.085839 0.992466,1.378816 1.321446,3.291142 0.914769,5.317484 -0.150463,0.749715 -0.351839,1.261935 -0.709506,1.804705 -0.810451,1.229886 -2.236526,2.147484 -3.699722,2.38056 -0.415232,0.06614 -1.737483,0.147519 -2.402697,0.14787 l -0.412197,2.17e-4 0,-5.939863 z"
     id="path4266"
     inkscape:connector-curvature="0" />
  <path
     style="fill:#ffffff;fill-opacity:0.94117647;stroke:#ffffff;stroke-width:0.05864443;stroke-opacity:1"
     d="m 151.72608,37.90138 c -3.19825,-0.146498 -5.12633,-0.376435 -7.948,-0.94785 -3.56228,-0.721391 -8.41082,-2.153297 -9.66664,-2.854818 -0.14304,-0.07992 -0.34579,-0.240615 -0.45055,-0.357121 l -0.19045,-0.211828 -0.0241,-0.390858 c -0.0458,-0.742766 -0.0681,-5.093496 -0.0954,-18.601508 l -0.0273,-13.56022237 19.25288,0 19.2529,0 -0.0142,15.96999037 -0.0142,15.969988 -0.15211,0.232522 c -0.19268,0.294544 -0.7399,0.828391 -1.1042,1.077208 -0.68691,0.469179 -4.46279,1.779299 -6.87543,2.385574 -2.3257,0.584431 -4.75502,0.983365 -7.37726,1.211463 -0.69721,0.06065 -3.78814,0.113085 -4.56587,0.07746 z m -4.0797,-8.428485 c 3.26837,-0.03526 3.30932,-0.03793 4.25425,-0.277461 1.28452,-0.325613 2.18909,-0.815806 2.99787,-1.624595 1.17482,-1.174817 1.62068,-2.452757 1.5492,-4.440343 -0.0277,-0.769364 -0.10737,-1.21905 -0.32598,-1.839411 -0.54362,-1.542614 -1.52916,-2.397238 -3.34469,-2.900364 -0.26412,-0.07319 -0.48486,-0.136911 -0.49054,-0.141593 -0.006,-0.0047 0.12702,-0.102164 0.29489,-0.216618 1.3731,-0.936244 1.99904,-2.409235 1.92091,-4.520321 -0.0481,-1.298832 -0.30775,-2.226839 -0.85203,-3.044845 -0.78124,-1.1741285 -2.12607,-1.8726974 -3.94609,-2.0497851 -0.22499,-0.021893 -2.3728,-0.040284 -4.77405,-0.040889 l -4.36507,-0.00108 0,10.5691531 0,10.569153 2.01871,-0.0041 c 1.11029,-0.0022 3.38847,-0.01885 5.06262,-0.03692 l 0,0 z m 15.19845,-4.588298 0,-4.629288 1.50081,0 1.50083,0 0,-1.923586 0,-1.923586 -1.50083,0 -1.50081,0 0.001,-1.025207 c 0.002,-1.635095 0.0768,-2.17574 0.34905,-2.532714 0.47795,-0.626631 1.25089,-0.704269 2.25868,-0.226874 l 0.39248,0.18592 0,-2.021009 0,-2.0210099 -0.39352,-0.150625 c -0.62838,-0.2405194 -0.99513,-0.2978783 -1.73873,-0.2719404 -1.01136,0.035281 -1.74317,0.2665726 -2.55477,0.8074561 -1.28977,0.8595692 -2.10082,2.0741832 -2.4144,3.6158152 -0.13875,0.682128 -0.16945,1.116637 -0.16981,2.403597 l -3.4e-4,1.236591 -0.76099,0 -0.76097,0 0,1.923586 0,1.923586 0.76097,0 0.76099,0 0,4.629288 0,4.629289 2.13496,0 2.13498,0 0,-4.629289 z"
     id="path4268"
     inkscape:connector-curvature="0" />
  <path
     style="fill:#ffffff;fill-opacity:0.94117647;stroke:#ffffff;stroke-width:0.05864443;stroke-opacity:1"
     d="m 146.01873,14.61145 0,-2.061654 0.89839,0.0233 c 0.6129,0.01589 0.9705,0.04375 1.12534,0.08764 0.9421,0.267037 1.44295,0.941745 1.44295,1.943848 0,0.951079 -0.48841,1.627905 -1.38481,1.919025 -0.29388,0.09544 -0.41716,0.108531 -1.20462,0.127912 l -0.87725,0.02159 0,-2.061653 z"
     id="path4270"
     inkscape:connector-curvature="0" />
  <path
     style="fill:#ffffff;fill-opacity:0.94117647;stroke:#ffffff;stroke-width:0.05864443;stroke-opacity:1"
     d="m 146.01873,23.076199 0,-2.219172 0.53904,0.01576 c 0.29646,0.0086 0.97658,0.02471 1.51138,0.03565 1.07657,0.02202 1.38687,0.06904 1.83293,0.277783 0.69522,0.325333 1.05659,0.874258 1.12661,1.711371 0.0507,0.605722 -0.15791,1.245719 -0.52082,1.597967 -0.21834,0.211939 -0.61456,0.440524 -0.93546,0.539675 -0.56274,0.173873 -0.98977,0.218455 -2.29595,0.239687 l -1.25773,0.02044 0,-2.219173 z"
     id="path4272"
     inkscape:connector-curvature="0" />
</svg>
