<?xml version="1.0" encoding="UTF-8"?>
<svg id="Ebene_2" data-name="Ebene 2" xmlns="http://www.w3.org/2000/svg" viewBox="0 0 296 296">
  <defs>
    <style>
      .cls-1 {
        fill: #cd001f;
      }
    </style>
  </defs>
  <g id="Ebene_1-2" data-name="Ebene 1">
    <g>
      <path class="cls-1" d="m103.16,142.1c-2.9,0-5.12,1.08-6.68,3.23-1.09,1.5-1.78,3.48-2.11,5.91h16.82v-.97c0-2.31-.7-4.25-2.11-5.82-1.41-1.57-3.38-2.35-5.93-2.35Z"/>
      <path class="cls-1" d="m148,0C66.26,0,0,66.26,0,148s66.26,148,148,148,148-66.26,148-148S229.74,0,148,0Zm-82.42,179.48h-15.15v-52.62h-18.49v-11.33h52.18v11.33h-18.54v52.62Zm60.07-19.55h-31.4c.25,2.93,1.06,5.28,2.43,7.03,1.68,2.14,4.12,3.21,7.31,3.21,2.31,0,4.33-.61,6.04-1.82,1.71-1.21,3.11-2.58,4.2-4.11l10.45,6.63c-1.46,3.02-4.02,5.43-7.67,7.25s-7.88,2.72-12.72,2.72c-7.61,0-13.63-2.17-18.05-6.5-4.42-4.33-6.63-10.13-6.63-17.4v-1.41c0-7.2,2.24-12.97,6.72-17.31,4.48-4.33,10.13-6.5,16.96-6.5s12.37,2.04,16.36,6.11c4,4.07,6,9.72,6,16.96v5.14Zm34.35,19.55l-9.09-14.23-9.49,14.23h-13.49l16.32-24.17-14.96-22.22h16.74l7.44,11.6,7.23-11.6h13.49l-14.02,21.66,16.53,24.73h-16.69Zm45.9-35.8h-8.17v20.86c0,2.11.39,3.55,1.16,4.33.78.78,1.79,1.16,3.05,1.16.64,0,1.28-.09,1.91-.26.63-.18,1.22-.38,1.78-.62v10.28c-.64.35-1.59.66-2.83.92-1.24.26-2.58.4-4.02.4-4.71,0-8.5-1.27-11.35-3.82s-4.28-6.56-4.28-12.04v-21.22h-6.46v-10.59h6.5v-10.76h14.54v10.76h8.17v10.59Zm40.61,12.48v15.9h-14.32v-15.9h-14.14v-12.61h14.14v-15.86h14.32v15.86h14.19v12.61h-14.19Z"/>
    </g>
  </g>
</svg>